<svg width="1474" height="982" viewBox="0 0 1474 982" fill="none" xmlns="http://www.w3.org/2000/svg">
<path fill-rule="evenodd" clip-rule="evenodd" d="M740.326 -11.0612C868.714 -17.7705 1004.38 -69.8172 1119.21 -27.714C1233.98 14.3616 1265.63 120.41 1324.63 203.167C1381.05 282.301 1439.98 359.299 1457.93 447.399C1477.77 544.77 1488.46 647.106 1433.41 737.1C1376.08 830.82 1268.33 904.511 1146.42 956.625C1023.86 1009.01 876.418 1063.53 740.326 1033.37C602.225 1002.77 578.937 858.791 456.207 803.673C339.577 751.296 155.851 804.048 64.5271 729.874C-24.1485 657.852 -1.75258 542.863 17.5562 447.399C35.3849 359.253 105.063 284.685 169.888 208.963C232.928 135.326 286.142 51.0367 391.753 10.3015C496.449 -30.0809 622.006 -4.8781 740.326 -11.0612Z" fill="#C4C4C4"/>
<path fill-rule="evenodd" clip-rule="evenodd" d="M740.326 -11.0612C868.714 -17.7705 1004.38 -69.8172 1119.21 -27.714C1233.98 14.3616 1265.63 120.41 1324.63 203.167C1381.05 282.301 1439.98 359.299 1457.93 447.399C1477.77 544.77 1488.46 647.106 1433.41 737.1C1376.08 830.82 1268.33 904.511 1146.42 956.625C1023.86 1009.01 876.418 1063.53 740.326 1033.37C602.225 1002.77 578.937 858.791 456.207 803.673C339.577 751.296 155.851 804.048 64.5271 729.874C-24.1485 657.852 -1.75258 542.863 17.5562 447.399C35.3849 359.253 105.063 284.685 169.888 208.963C232.928 135.326 286.142 51.0367 391.753 10.3015C496.449 -30.0809 622.006 -4.8781 740.326 -11.0612Z" fill="url(#paint0_linear_16_39)" fill-opacity="0.6"/>
<defs>
<linearGradient id="paint0_linear_16_39" x1="737" y1="-44" x2="737" y2="1042" gradientUnits="userSpaceOnUse">
<stop stop-color="#2094FF"/>
<stop offset="1" stop-color="#5200FF"/>
</linearGradient>
</defs>
</svg>
